#tb 0: 1/8000
#media_type 0: audio
#codec_id 0: pcm_s16le
#sample_rate 0: 8000
#channel_layout_name 0: mono
0,          0,          0,      504,     1008, 0x00560003
0,        504,        504,      504,     1008, 0x081be750
0,       1008,       1008,      504,     1008, 0x3ae9fbfc
0,       1512,       1512,      504,     1008, 0x5876f043
0,       2016,       2016,      504,     1008, 0x9d451779
0,       2520,       2520,      504,     1008, 0xabf514ab
0,       3024,       3024,      504,     1008, 0x66b00a87
0,       3528,       3528,      504,     1008, 0xfc6dfeba
0,       4032,       4032,      504,     1008, 0x50c90d39
0,       4536,       4536,      504,     1008, 0x302ff3f2
0,       5040,       5040,      504,     1008, 0x9c6de6c6
0,       5544,       5544,      504,     1008, 0x50aac56a
0,       6048,       6048,      504,     1008, 0x3211f67b
0,       6552,       6552,      504,     1008, 0xf412f994
0,       7056,       7056,      504,     1008, 0xdcdd11ce
0,       7560,       7560,      504,     1008, 0xed11e0cf
0,       8064,       8064,      504,     1008, 0x844ef4c8
0,       8568,       8568,      504,     1008, 0x0b13f41d
0,       9072,       9072,      504,     1008, 0xde81133d
0,       9576,       9576,      504,     1008, 0xefaafe3f
0,      10080,      10080,      504,     1008, 0xad7fe0ed
0,      10584,      10584,      504,     1008, 0x0bf1f2b3
0,      11088,      11088,      504,     1008, 0xe064fa35
0,      11592,      11592,      504,     1008, 0xd90decce
0,      12096,      12096,      504,     1008, 0x5817120e
0,      12600,      12600,      504,     1008, 0xd904f0a2
0,      13104,      13104,      504,     1008, 0xe9f1f201
0,      13608,      13608,      504,     1008, 0x577d1f7c
0,      14112,      14112,      504,     1008, 0x59f414f4
0,      14616,      14616,      504,     1008, 0xe2241468
0,      15120,      15120,      504,     1008, 0xc8aef989
0,      15624,      15624,      504,     1008, 0xb61e09d3
0,      16128,      16128,      504,     1008, 0xc065c80d
0,      16632,      16632,      504,     1008, 0xa171f7a4
0,      17136,      17136,      504,     1008, 0x95b4e9e3
0,      17640,      17640,      504,     1008, 0xae23fe53
0,      18144,      18144,      504,     1008, 0x28bef0dc
0,      18648,      18648,      504,     1008, 0x2db67d74
0,      19152,      19152,      504,     1008, 0x15b3c343
0,      19656,      19656,      504,     1008, 0xb72de97b
0,      20160,      20160,      504,     1008, 0xc263e985
